# xmcd
#
# Track frame offsets: 
#        150
#        16370
#        33214
#        49394
#        63350
#        79341
#        94094
#        111475
#        126487
#        140422
#        154502
#        170594
#        186469
#        206787
#        221739
#        238568
#        255088
#        274363
#        291250
#        324655
#
# Disc length: 4527 seconds
#
# Revision: 0
# Processed by: cddbd v1.5.2PL0 Copyright (c) Steve Scherf et al.
# Submitted via: ExactAudioCopy v1.0b3
#
DISCID=3511ad14
DTITLE=Various Artist - Masters Of Trance Vol. 2 - CD 1
DYEAR=1900
DGENRE=
TTITLE0=Scooter - Hello! (Good To Be Back) (Radio Edit)
TTITLE1=Brooklyn Bounce - Sex, Bass and Rock 'n' Roll (Bangbros Remix Ed
TTITLE1=it)
TTITLE2=666 and DJ Bonito - Atención (DJ Bonito Screen Cut)
TTITLE3=The Real Booty Babes - Since U Been Gone (Radio Edit)
TTITLE4=Klubbdriver - Move Your Feet (Klubbheads Euro Radio Edit)
TTITLE5=M.Y.C. - Drop My Style (Tune Up! Radio Edit)
TTITLE6=DJ Lee - Fight Hard (Single Edit)
TTITLE7=Mario Lopez - I Can't Believe It (Biscaya) (Radio Mix)
TTITLE8=Jens O. - One More (Radio Edit)
TTITLE9=Da Franco - Show Me (Radio Edit)
TTITLE10=Greatest Deejay - Greatest DJ (Club Cut)
TTITLE11=Tabassco Vs. Spread 'n' Lick - Rock Da Gee (Extended Cut)
TTITLE12=Knightclub - Ab Geht's!!! (Extended Mix)
TTITLE13=Ruff Stuff - Monkey Do, Monkey Say (Club Cut)
TTITLE14=Michael Parsberg and Flipside - The Box (Original Cut)
TTITLE15=Sun:Port - Follow Me
TTITLE16=Ayu - Unite! (Airwave Vocal Edit)
TTITLE17=Ron Van Den Beuken - Sunset (Ron Van Den Beuken Radio Cut)
TTITLE18=ATB - Let U Go (E-Craig's 2005 Rework)
TTITLE19=Discoblaster - Fading (Radio Edit)
EXTD=
EXTT0=
EXTT1=
EXTT2=
EXTT3=
EXTT4=
EXTT5=
EXTT6=
EXTT7=
EXTT8=
EXTT9=
EXTT10=
EXTT11=
EXTT12=
EXTT13=
EXTT14=
EXTT15=
EXTT16=
EXTT17=
EXTT18=
EXTT19=
PLAYORDER=
